<svg width="60" height="60" viewBox="0 0 60 60" fill="none" xmlns="http://www.w3.org/2000/svg">
<g>
<path fill-rule="evenodd" clip-rule="evenodd" d="M2.63811 40.097C0.798113 42.837 -0.377887 44.292 0.111112 47.977C0.463113 50.623 1.88611 53.117 4.11611 54.582C6.55811 56.188 9.69611 56.466 12.3201 55.114C15.1501 53.654 15.9261 51.999 17.0461 49.184L42.9901 49.188C44.1371 52.055 44.8971 53.671 47.7871 55.15C53.0581 57.847 59.5941 53.819 59.9801 47.406C60.0761 45.814 59.8281 44.246 59.1741 42.791C58.4121 41.094 57.7821 40.865 56.9111 39.591C58.0981 37.018 58.5071 34.881 57.2431 32.179C55.0431 27.475 48.9501 26.499 45.5831 30.723C44.8291 31.668 44.8651 33.005 44.3821 34.127C43.9181 35.206 43.3721 36.022 42.7171 36.976C47.9101 37.804 44.5231 34.615 47.6181 31.596C49.8271 29.443 52.9001 29.841 54.8251 32.146C57.7991 35.708 54.4271 38.727 54.4571 39.906C54.4811 40.876 58.0711 42.352 57.9871 46.894C57.8701 53.182 50.3741 56.373 46.3861 51.407C42.2541 46.262 50.6361 46.999 29.9121 46.999H19.5991C18.4861 46.999 15.6031 46.528 15.2151 47.838C14.7301 49.474 14.7551 50.048 13.6031 51.466C9.57311 56.429 1.99311 53.061 2.04911 46.676C2.06111 45.288 2.45911 43.862 3.23211 42.709C3.93511 41.661 5.59711 40.7 4.91911 39.609C4.04211 38.199 3.42611 37.999 3.27811 36.027C2.90211 31.018 8.41611 28.389 11.7251 31.652C14.6121 34.499 11.2621 37.887 16.7861 36.974C16.1261 36.036 15.4561 35.117 15.0921 34.051C14.6441 32.741 14.5101 31.794 13.6321 30.693C12.0171 28.669 9.37711 27.631 6.83011 28.205C1.48711 29.41 -0.129887 35.565 2.63811 40.097Z" fill="#222327"/>
<path fill-rule="evenodd" clip-rule="evenodd" d="M31.1132 20.778C34.0682 20.068 35.4442 23.717 32.4812 24.472C29.4562 25.242 27.9062 21.547 31.1132 20.778ZM29.6772 36.348L29.7342 36.301C30.0892 36.419 30.8082 38.751 33.3632 39.441C36.6972 40.342 40.5532 38.516 42.5632 35.4C43.1392 34.506 44.9372 31.306 43.4112 30.673C42.0762 30.12 41.5482 33.228 40.7042 34.493C39.7982 35.85 38.2262 36.902 36.6532 37.272C31.2932 38.534 30.7202 33.902 30.7692 29.812C33.4422 29.011 36.3352 25.559 36.1592 22.643C35.9412 19.033 30.9112 17.921 28.0452 18.486C24.2672 19.232 22.1322 21.8 24.0752 25.623C26.2652 29.927 28.6432 29.085 28.7512 30.337C29.1412 34.837 26.5092 39.834 20.9482 36.509C19.6092 35.708 18.6942 34.529 18.0272 33.129C17.7792 32.609 17.3942 31.112 17.1752 30.877C16.5462 30.206 15.4282 30.719 15.4642 31.739C15.5592 34.432 18.5142 37.881 20.9392 38.882C24.2792 40.262 28.0042 39.932 29.6772 36.349V36.348ZM36.0232 15.816C35.2542 14.029 34.5102 12.251 35.7042 10.332C36.8042 8.56496 38.9112 8.50196 40.4692 9.71496C43.7312 12.252 43.7272 18.559 39.6092 18.284C41.8662 17.55 42.5452 15.17 41.4832 13.086L39.0502 14.93L39.8592 11.797C36.9922 11.085 35.9562 13.387 36.0232 15.815V15.816ZM37.2932 6.82296C29.8232 8.34296 33.3112 21.692 40.6572 20.389C48.0972 19.069 44.6842 5.31896 37.2932 6.82296ZM21.2352 14.669L18.8892 12.843C18.2002 13.566 18.1412 14.941 18.4292 15.864C18.7722 16.963 19.2092 17.258 20.0592 17.857C15.9112 17.514 16.5152 12.166 18.9122 9.69696C20.1422 8.43096 22.1222 7.93696 23.5802 9.15996C25.1472 10.472 24.7672 12.682 24.3672 14.385C23.7122 13.295 23.8762 11.925 21.8932 11.51C19.6862 11.049 20.6732 11.948 21.2352 14.669ZM20.8802 6.36996C13.1202 7.65396 13.1532 21.22 20.9052 19.96C28.6372 18.702 28.6022 5.09296 20.8802 6.36996ZM34.9382 0.0459611C33.8242 0.225961 33.6662 1.53896 34.3812 2.01496C35.1062 2.49696 36.9392 1.47996 38.8682 4.35096C39.3422 5.05696 39.5422 6.17096 40.5132 6.04996C43.1762 5.71796 38.9472 -0.600039 34.9382 0.0459611ZM22.3202 0.0699611C20.6062 0.316961 19.2002 1.38196 18.2082 2.75996C15.7882 6.12896 18.2132 6.61996 18.8992 5.60196C19.8362 4.21196 20.3302 2.67696 22.2832 2.24696C23.0932 2.06896 24.5652 2.49296 24.4932 1.05696C24.4332 -0.125039 23.1762 -0.0530389 22.3192 0.0709611L22.3202 0.0699611Z" fill="#222327"/>
</g>
</svg>
